<?xml version="1.0" encoding="utf-8"?>
<!-- Generator: Adobe Illustrator 19.2.1, SVG Export Plug-In . SVG Version: 6.00 Build 0)  -->
<svg version="1.1" id="layer" xmlns="http://www.w3.org/2000/svg" xmlns:xlink="http://www.w3.org/1999/xlink" x="0px" y="0px"
	 viewBox="0 0 652 652" style="enable-background:new 0 0 652 652;" xml:space="preserve">
<style type="text/css">
	.st0{fill:#004785;}
	.st1{fill:#FAB000;}
	.st2{fill:#E30040;}
	.st3{fill:#878787;}
</style>
<path class="st0" d="M319,85.8c-47.8,1.8-86.7,36.4-95.6,81.3l-10.3-2c10.2-51.3,55.4-89.9,109.7-89.9c53.6,0,98.4,37.7,109.3,88
	l-10.3,2.1C411.5,118.4,368.8,84,319,85.8 M213.2,209.6c10.5,50.9,55.5,89.2,109.5,89.2c54.7,0,100.2-39.3,109.9-91.2l-10.3-1.8
	c-8.5,45.5-47.6,80.7-95.8,82.4c-50.2,1.8-93.1-33.1-102.9-80.7L213.2,209.6z"/>
<path class="st1" d="M422.6,204c0.5-2.9,0.9-5.9,1.1-8.8l10.5,0.7c-0.3,3.4-0.7,6.7-1.2,10L422.6,204z M211.4,197.8
	c0.3,3.4,0.8,6.7,1.4,9.9l10.3-2c-0.5-2.9-1-5.8-1.2-8.8L211.4,197.8z"/>
<path class="st2" d="M423.8,193.2c0.2-3.3,0.2-6.6,0.1-9.9c-0.2-5.5-0.8-10.8-1.9-16l10.3-2.1c1.4,7.1,2.1,14.4,2.1,21.9
	c0,2.3-0.1,4.6-0.2,6.9L423.8,193.2z M212.7,167.1c-1.2,6.5-1.8,13.2-1.8,20c0,3,0.1,5.9,0.3,8.9l10.5-0.9c-0.1-1.4-0.2-2.8-0.2-4.2
	c-0.3-7.4,0.3-14.7,1.5-21.7L212.7,167.1z"/>
<path class="st3" d="M319.9,126.5c-33.3,1.2-59.2,29.2-58,62.5c1.2,33.3,29.2,59.3,62.5,58c33.3-1.2,59.2-29.2,58-62.5
	C381.1,151.2,353.2,125.2,319.9,126.5 M319.8,125.3c33.9-1.2,62.4,25.2,63.6,59.1c1.3,33.9-25.2,62.4-59.1,63.6
	c-33.9,1.2-62.4-25.2-63.6-59.1C259.5,155,285.9,126.5,319.8,125.3 M315.7,229.3c-0.4,0.8,0,1.6,1.5,1.6c0.1-0.5,0.2-1.1,0.4-1.6
	c0.3-0.8,0.6-1.6,1.1-2.3l0.2-0.7c0.5-2,1.4-3.9,1.5-5.9l-0.5-0.3l-0.1,0.3c-0.8,1.9-1.9,3.9-2.9,5.9
	C316.6,227.3,316.1,228.3,315.7,229.3 M328.6,226.3c0.3,0.5,0.7,0.9,1,1.4c0.5,0.5,0.7,1.2,1.3,1.6c0.3,0.2,0.6,0.3,1,0.3
	c0-0.1,0-0.2,0-0.3c0-0.9-0.7-1.9-1.4-2.7l-0.3-0.3c-1.8-2.1-2.9-4.4-4.9-6l-0.3-0.2C325.8,222.3,327.1,224.4,328.6,226.3
	 M326.6,220.3c0.1,0.1,0.2,0.2,0.3,0.3c1.2,2.1,2.9,3.7,4.7,5.6c0.8,0.8,1.5,1.6,2.3,2.6c0.3-0.4,0.5-0.8,0.4-1.3
	c-0.3-0.5-0.7-0.9-1-1.3c-1-1.1-2-2-2.9-3.3c-0.7-1-1.5-1.9-2.4-2.7c-0.6-0.6-1.3-1.1-2.2-1.6C325.6,219.4,326.2,219.9,326.6,220.3
	 M328.8,220.3c1,1.1,2,2.2,3,3.3l0.3,0.3l0.3,0.3l0.4,0.4c0.7,0.6,1.1,1.7,2.3,1.1c-1.6-2-3.4-3.8-5.2-5.5c-0.8-0.7-1.5-1.4-2.2-2
	l-0.6,0.1L328.8,220.3z M333.3,220.3l-1.5,0.2c1.2,0.6,2.1,2.8,3.8,1.9c0.4-0.3,0.8-0.8,0.4-2.1l-0.1-0.3L333.3,220.3z M339.2,220.3
	c-0.4,0.2-0.8,0.4-1.3,0.7c-0.1,0.5,0.1,0.9,0.5,1.3c0.7,0.3,1.6,0.1,2.3-0.2c0.4-0.5,1.1-0.8,1.1-1.5c-0.1-0.1-0.1-0.2-0.2-0.3
	C341.1,219.9,340.2,219.9,339.2,220.3 M343.4,220.3c-0.6,0.4-1.1,1.1-1.2,2.2c1.9,0,4,0.5,5.3-0.9c0.1-0.4,0.2-0.8,0.1-1.2
	c-1-0.5-2.1-0.3-3.2-0.4C344.1,220,343.8,220.2,343.4,220.3 M348.5,220.4l0.2,0.3c-0.1,0.7-0.1,1.3-0.5,1.8c-1,1.4-2.9,0.3-3.9,1.4
	c-0.6,0.4-1.5,0.8-2.1,0.4c-0.6-0.3-1-1.3-1.7-0.8c-0.6,0.7-1.5,1.1-2.4,0.8c-0.6-0.5-1-1.2-1.9-1c-0.2,1.3,0.5,2.1,0.8,2.9
	c0.7,1,1.4,1.9,1.5,3c0,0.2,0,0.4,0,0.5c-0.9,0.5-2,0.8-2.2,1.9c-0.7,0.2-1.6,0.1-1.9,0.9c-0.3,0.6-0.2,1.1-0.8,1.6
	c-0.7,0.1-1.4-0.1-2,0.1c-0.5,0.4-0.6,1.4-1.4,1.2c-0.6-0.3-1.2-0.4-1.9-0.2c-0.7,0.4-0.8,1.4-1.5,1.9l-2.3-1
	c-1.2,0.1-1.5,2.1-2.8,1.6c-0.8-0.5-1.1-1.8-2.3-1.9l-1.9,0.6c-0.6-0.4-0.9-1.3-1.7-1.2c-0.6,0-1.2,0.2-1.7,0.2
	c-0.8-0.5-0.9-1.6-1.7-1.8c-0.7-0.2-1.8,0.3-2.2-0.6c-0.1-1.6-2.2-0.8-2.5-2.2c0.1-0.8-0.6-1.1-1.1-1.5c-0.3-0.3-0.6-0.6-0.4-1.1
	c0.3-0.6,0.6-1.3,0.9-1.9c0.5-0.9,1.1-1.8,1.7-2.6c-1.8-0.3-2.3,0.5-3.3,0.4c-0.9,0-1.8-1.5-2.6-0.2c-1,0.5-1.9-0.4-2.8-0.6
	c-1.8,0.1-4.1,0.5-5-1.3c-0.2-0.6-0.1-1.2,0.2-1.7c0.1-0.2,0.2-0.4,0.4-0.5c1.8-1.5,4.8,0.1,6.6-1.5c2-0.6,4.2,0.7,5.7-1
	c1-1,2.2-1.9,3.3-2.9c1.8-1.4,2.5-2.9,2.8-5.2c0.9-0.9,0.1-2.1-0.1-3.1c-0.7-1.3-0.4-3-1.2-4.2c-0.7,0.1-0.7,1-0.8,1.6
	c0.1,2.2-0.2,4.4-1.9,5.7c-1,0.3-2.1-1.1-3-0.1c-0.6,0.2-1.1,1.2-1.9,0.7c-0.8-0.6-1.5-2.1-2.6-1.5c-0.8,0.5-1.2,1.6-2.2,1.3
	c-0.8-0.5-1.1-1.9-2.2-1.8c-0.6,0.3-1.1,0.8-1.7,0.6c-0.6-0.5-1.2-1.1-1.5-1.8c-1.2-0.4-2.5,0.8-3.6,0.2c-0.6-0.7-0.6-1.7-1.3-2.2
	c-1.1,0-2.7,0.8-3.3-0.4c-0.2-0.6,0-1.6-0.9-1.8c-1.7,0-3.5,0.9-5.1-0.1c0.3-1.3,0.7-2.4,1.2-3.6c-0.9-0.6-2.2,0.1-3.2-0.3
	c-0.6-0.1-1.3-0.3-1.7-0.8c0-1.4,0.8-2.5,1-3.8l-0.3-0.2c-1.7,0.1-3.5,0.1-5.1-0.7c-0.6-0.6,0-1.7,0.4-2.3c0.4-0.5,0.8-1,1-1.6
	c-0.5-0.8-1.5-0.6-2.2-1.1c-0.6-0.5-2.1-0.4-1.7-1.5c0.3-0.7,0.7-1.2,1.2-1.7c0.6-0.6,1.4-1.2,1.9-2c-0.5-1.4-2.2-1.9-3.2-3.1
	c0.2-0.3,0.3-0.6,0.5-0.9c0.8-1.3,1.8-2,2.8-2.7c0.1-0.1,0.1-0.2,0.1-0.3c0-0.3-0.2-0.7-0.5-1c-0.9-1.2-2.1-1.9-2.8-3.1
	c1.1-1,2.4-1.7,3.9-1.9c-0.2-1.3-0.8-2.2-1.4-3c-0.3-0.4-0.5-0.8-0.7-1.2c1.9-0.8,4.2-0.1,6-1c-1-2-2.1-3-3.1-4.4
	c0.2-0.6,0.9-0.2,1.4-0.4c1.6-0.3,3.2,0.4,4.8,0.5c-1.5-2-3.1-3.8-3.1-6c3.6,0.4,6.1,2.4,8.7,3.8c-0.3-3-4.1-5.1-4-8.2
	c3.9,1.7,7,3.5,9.6,5.9c-1-2.8-1.2-5.4-2.8-7.3c-0.7-1.2-0.7-2.6-0.7-3.9c0.8-0.2,1.2,0.9,2,1.1c1.6,1.9,3.2,3.8,4.3,5.9
	c1.7-0.2,1.3-1.2,0.9-2.1c-0.5-1.2-0.7-2.3-0.8-3.7c-0.7-1.8-0.6-3.3-0.1-5.2c2.1,0.6,2.1,2,2.8,3.1c0.7,1.7,1.1,3.7,1.6,5.6
	c0.4,0.7,0.1,1.5,0.7,1.9c1.3-0.1,0.3-1.5,0.6-2.3c0-2.1,0.5-4.6,0-6.7c-0.4-2.1,0.4-4.1,1.8-5.4l0.4,0.1c0.3,1.6,0.7,3.4,0.6,5
	c0.4,1.1-0.2,2,0.4,2.9c1.2,0.1,1.2-1.7,2.4-1.7c0.4,0.8,0.2,2,0.6,2.8c0.1,1.2,0.1,2.5-0.1,3.8c0.1,0.8-0.1,1.9-0.2,2.8
	c-0.4,3.1-1,6.2-1.5,9.4c-0.7,1.5-0.8,3.2-0.7,4.9c0.2,2.3,0.8,4.6,1.2,6.6c0.5,0.7,0.9,1.5,1.2,2.3c0.4,1,0.7,1.9,0.9,3
	c0.1,0.5,0.2,1,0.2,1.6c0.8,1.7,2.4,2.8,3.1,4.4c0.1,0.3,0.3,0.7,0.3,1.1c0.4,0.5,1.1,0.5,1.7,0.4c1.7-1.3,2.6,1.9,4.3,0.4
	c0.6-0.5,1-1.2,1.3-1.9c0.2-0.5,0.2-1.1,0.2-1.6c-0.3-0.9-0.3-2.2-1.4-2.6l-0.7-0.4c-1.2-0.7-2.4-1.5-3.4-2.5c0.5-0.7,1-0.2,1.5-0.2
	c1,0.1,1.9,0.3,3,0.4c-0.5-0.8-1-1.5-1.5-2c-0.8-0.8-1.6-1.3-2.5-1.6c0.4-0.6,1.5-0.3,2.2-0.3c1.8,0.5,3.6,1.1,5.3,1.9
	c1.7,0.8,3.4,1.8,4.9,3l0.3,0.3c1.5,1.7,2.6,3.5,3,5.7c0.1,0.3,0.1,0.6,0.1,0.9c0.5,1.8,2.8,0.6,4.1,1.2c0.7-0.7,1.3-1.4,1.9-2.1
	c1.5-1.9,2.7-3.8,3.1-6c0.1-0.3,0.1-0.6,0.1-0.9l0.4-2.1c0.5-2.7,1.2-5.4,2.1-8l-0.1-1c-0.5-8-1.3-15.9-0.8-23.9
	c0.7-0.5,0.8,0.8,1.4,1.1c1-2.5,0.6-4.8,2.2-6.2c1.4,0.5,1.5,2.1,1.8,3.4c-0.2,2.3,0,4.6,0.2,6.8c1.5-2.3,1.9-5.4,4.5-6.9
	c0.4,2.4,0.1,4,0.1,6c-0.2,1.2-1.1,2.2-1.4,3.4c-0.5,0.8-0.5,2.1-0.1,3c0.5,0.4,0.9-0.4,1.2-0.8c1.5-2.6,3.5-5.5,6.2-7.3
	c1.5,0.2,1.2,1.2,1.2,1.7c-0.1,1.2-1,2.1-1.2,3.3c-1.6,1.4-2.3,3.1-3.1,4.9c-0.4,0.5-1.1,1.2-0.6,2c0.9-0.3,1.4-1.1,2.1-1.8
	c1.8-2.9,4.9-4.5,7.8-5.7c0.5,2.1-1.3,3.1-1.7,4.8c-0.8,2-2.5,3.6-4.3,4.6c-0.4,0.5-1.1,1.1-1.1,1.7c0.5,0.6,1.1-0.1,1.6-0.3
	c3-2.1,6.1-4,9.7-4.7c1,1.3-0.2,2.1-1,2.8c-1.3,1-2.9,2.1-3.9,3.6c1,1,1.9,0.1,2.8-0.2c1.5-0.9,3.7-1.1,5.4-0.8
	c-1,1.9-2.3,2.9-3.3,4.4c0.4,1.1,1.7,0,2.6,0.2c1.1,0.1,2.4,0.2,3.2,1c0.1,0.1,0.2,0.2,0.2,0.3c-1.1,1.5-2.4,2-3.4,3.1
	c1.1,1.4,2.4,1.1,3.5,1.7c0.5,0.3,1.1,0.6,1.4,1c-0.9,1.2-2.3,1.8-3.1,2.8c-0.2,0.2-0.3,0.5-0.4,0.8c0.7,0.9,1.9,0.9,2.8,1.6
	c0.2,0.2,0.5,0.4,0.8,0.6c0.7,0.4,1.4,0.8,1.6,1.6c-1.3,0.9-2.6,1.7-4.1,2.3c-0.5,0.3-0.4,0.9,0,1.2c0.3,0.3,0.7,0.6,1,0.9
	c0.6,0.5,1.1,0.9,1.6,1.5c-0.2,0.8-1.2,1-1.8,1.3c-1,0.5-2.1,0.6-2.9,1.5c0.1,0.7,0.7,1.1,1.1,1.6c0.6,0.9,0.9,1.8,0.8,2.7l-0.5,0.3
	l-4.3,0.4l-0.2,0.2c0.5,1.2,1.3,2.4,1.3,3.8c-1.5,0.6-3.3,0.4-4.9,0.6l-0.3,0.3l-0.3,3l-0.6,0.4c-1.2,0.6-3.7-0.7-3.8,1.4
	c-0.3,0.5-0.4,1.1-1,1.3c-1.2,0.1-2.5-0.8-3.6-0.2c-1.1,0.6-0.6,3-2.4,2.2c-0.6-0.3-1.5-0.6-2.1-0.3c-0.7,0.7-0.6,2.4-1.9,2.2
	c-0.7-0.2-1.1-1-1.9-0.9c-1.1,0.4-1.3,2.9-2.7,1.3c-0.5-0.2-1.1-0.8-1.7-0.3c-0.6,0.4-1.1,1.3-1.9,1.2c-0.5-0.5-0.9-1.3-1.7-1.3
	c-0.9,0.2-1.3,1.1-2.3,0.8c-2.3-1.3-2.2-4.2-2.9-6.5c-0.3-0.2-0.6-0.5-1-0.4l-0.4,0.6c-0.2,1.9-1.4,3.8-1,5.8c1,1.9,2.7,3.6,4.4,5.3
	c1.1,1.1,2.2,2.2,3.3,3.2c1.9,1.3,4.7-0.3,6.4,1.5C345.3,219.2,347.5,218.9,348.5,220.4 M314.5,214.4c-2.1,1.1-4.4,1.7-6,4.5
	c1.8,0.3,3.9,0,5.9,0.1c1.1-0.3,1.8-1.5,2.8-1.9c0.4-0.5,0.4-1,0.3-1.6c-0.2-0.3-0.3-0.7-0.4-1.1l-0.2-0.7L316,213
	C315.7,213.3,314.8,214.2,314.5,214.4 M318.1,214.4c0.8,2.3,1.8,4.5,3.9,5.9c1.2,0.2,1.8-1.2,2.3-1.8c1.1-1.2,1.7-2.6,2.2-4.1
	c0.2-0.5,0.4-1,0.5-1.6c-0.2-0.2-0.9-0.2-0.7-0.8c1.2-1.3,1.2-2.8,1.6-4.4c0.4-0.8-0.2-1.7,0.3-2.5c0.2-0.2,0.4,0.1,0.7,0.1
	c0.5-1.2,1.2-2.5,1.2-3.8c-0.8-2.1-1.8-4.2-2.1-6.4c-0.4-1.6-0.2-3,0-4.4c0.1-0.6,0.1-1.3,0.2-2c0.3-1.3,0.3-2.7,0-4
	c-0.1-0.3-0.1-0.6-0.2-1c-0.2-0.5-0.3-1-0.5-1.5c-0.5-0.8-1.2-2-2.3-1.8c-0.9,0.3-1,1.3-1.1,2.2c-0.1,0.8-0.3,1.5-0.7,2.1
	c-0.8,1.3-2,2.2-3.4,2.6c-1,0.6-2.7-0.1-3.3,1c0.2,0.8,0.2,1.5,0.2,2.3c-0.4,3.9-1.4,7.5-2.7,11c0.3,1.2,0.4,2.5,0.9,3.6
	c0.2,0,0.3-0.1,0.4-0.3c0.2,0,0.6-0.2,0.7,0.1c-0.2,1.6,0,3.4,0.8,4.7c0.3,0.8,1.4,1.5,1.7,2.3c-0.2,0.8-0.8-0.1-1.2,0.1v0.4
	C317.7,213.2,317.9,213.8,318.1,214.4 M327.5,214.4c-0.3,0.7-0.5,1.3-0.5,2c0.6,1,1.8,1.7,2.7,2.5l6.5-0.6c-0.9-1.2-1.9-2-3.1-3.1
	c-0.3-0.3-0.6-0.6-1-0.7c-0.6-0.3-1.3-0.5-2-0.5c-0.5-0.2-0.6-1.6-1.8-1.8C328.2,212.6,327.7,213.9,327.5,214.4 M296.8,220.3
	c-0.2,0.2-0.5,0.4-0.6,0.7c-0.1,0.4,0,0.8,0.3,1.1c1.5,0.4,3.6,0.6,5-0.4c0.3-0.4,0.5-0.8,0.4-1.4l-0.9-0.3
	C299.7,220.3,297.9,219.6,296.8,220.3 M303.3,220.3c-0.4,0.4-0.6,1-0.7,1.5c0.8,0.8,2.1,0.5,3.1,0.3c0.2-0.1,0.3-0.3,0.4-0.4
	c0.3-0.4,0.4-0.9,0.3-1.4c-0.7-0.5-1.7-0.3-2.4-0.4C303.7,220,303.5,220.2,303.3,220.3 M309.5,220.3c-0.5,0.4-0.8,1.1-0.5,2.1
	c1.6,0.8,2.2-1.1,3.3-2.1c-0.6-0.5-1.7-0.3-2.4-0.2C309.8,220.2,309.6,220.2,309.5,220.3 M314.4,220.3c-1.5,1.1-2.9,2.2-4.2,3.4
	c-0.3,0.5-0.8,0.8,0,1.9c0.6,0,0.7-0.6,1.1-0.9c1.3-1.7,3.3-2.8,4.8-4.4c0.1-0.2,0.3-0.3,0.4-0.5c0.3-0.4,1.1-0.8,1-1.3l-0.4-0.1
	C316.2,219.1,315.3,219.7,314.4,220.3 M317,220.3c-1.6,1.5-3.3,3-4.8,4.7c-0.3,0.5-0.7,0.9-1,1.3c-0.3,0.5-0.5,1-0.3,1.6
	c1,0.1,1.3-1,1.7-1.5c0.8-1.5,2.6-2.4,3.5-3.8c0.5-0.8,1.1-1.5,1.6-2.2c0.2-0.3,0.4-0.6,0.5-0.9l-0.3-0.1
	C317.7,219.7,317.3,220,317,220.3 M314.3,226.3l-1,1.6c-0.2,0.4-0.5,0.9,0.5,1.4c0.5-0.9,1.1-1.7,1.7-2.5c1.3-2.1,2.9-4.1,3.6-6.5
	l-0.2-0.5C317.2,222,315.7,224.1,314.3,226.3 M318.9,229.3c-0.1,0.6,0.1,1.3,0.7,1.9c0.5-0.7,1.2-1.2,1.7-1.9
	c0.1-0.1,0.2-0.3,0.3-0.4c0-0.9,0.1-1.7,0.1-2.6c0-1.5,0-3-0.1-4.6l-0.6-0.3c-0.4,1.6-1.1,3.2-1.6,4.9c-0.1,0.4-0.2,0.8-0.2,1.2
	C319.1,228.1,318.9,228.7,318.9,229.3 M322.7,229.3c0.2,0.3,0.5,0.6,0.9,0.9c0.6,0.4,0.6,1.2,1.7,0.4l-0.1-1.3c-0.1-1-0.2-2-0.4-3
	c-0.3-1.5-0.7-2.9-1.2-4.4l-0.8-0.6c-0.5,0.4-0.2,1.2-0.4,1.8c0,0.2,0.1,0.4,0.1,0.6c0,0.8-0.1,1.7-0.2,2.6
	C322.2,227.4,322.2,228.5,322.7,229.3 M327.1,229.3c0.2,0.7,0.4,1.3,1.8,0.9c0-0.3,0-0.6-0.1-0.9c-0.2-1.1-0.7-2-1.2-3
	c-0.8-1.4-1.8-2.7-2.3-4.2c-0.4-0.4-0.7-2.4-1.5-1.1l0.2,0.7c0.4,1.6,1.2,3.1,1.9,4.7c0.4,0.8,0.8,1.6,1.1,2.5
	C327,228.9,327.1,229.1,327.1,229.3 M300.4,184.4c0.8,0.9,1.9,0.3,2.8,0.1l0.3,0c-0.5,0.5-1.1,1.2-1.1,1.9c-0.3,0.6,0.1,1,0.6,1.2
	c1.2,0.3,1.9-0.9,2.8-1c-0.3,0.8-1.3,1.3-0.1,2.9c0.8,0.2,1.3-0.8,1.8-0.3c0,0.5,0.1,1,0.6,1.3c1.2,0.1,1.9-0.8,2.4-1.7
	c0.6-1.5-0.3-2.9-0.8-4.3l-0.1-0.4c-1-1.4-2.7-2.4-3-4.1c-0.1-0.4-0.2-0.9-0.2-1.5c-0.1-1-0.1-2-1-2.6c-0.5,0.4,0,1.3,0.1,1.8
	c-0.5,0.1-0.7-0.6-1.8-0.8c-0.3,0.6-0.1,1.1,0.2,1.6l0.2,0.3c-0.1,0.5,0.8,0.8,0.2,1.3c-0.8,0-1.4-0.9-2.2-1c-0.4,0-1.1-0.1-1.3,0.4
	c-0.1,0.8,0.6,1.5,2.2,2.6c-0.6,0.3-1.3,0.7-1.9,0.9C300.7,183.5,300.2,183.8,300.4,184.4 M337.2,190.5h0.8c1.3-0.5-0.2-1.3-0.2-2
	c0.6-0.1,0.9,0.8,1.5,1.1c0.5,0.2,1.3,1,1.8,0.1c0.1-0.9-0.6-1.6-1.1-2.6c0.9,0.4,1.8,1.4,3.7,0.9c0.1-1.4-1.3-2-2.1-2.8
	c1-0.2,1.9,0.4,3.5-0.6c-0.2-1.4-1.6-1.9-2.8-2.1c0.3-0.6,1.1-0.8,1.6-2.4c-1-0.8-1.7,0.4-2.7,0.4c-0.6-0.8,0.8-0.9,1-1.6
	c0-0.1,0.1-0.2,0.1-0.3c0.1-0.4,0.3-0.7,0-1.1c-0.8-0.5-1.3,0.3-1.8,0.7c-0.3-0.4,0.1-1,0-1.6l-0.6-0.1c-0.3,0.6-0.4,1.3-0.6,2
	c-0.2,0.9-0.4,1.8-0.8,2.7c-0.5,1.1-1.3,2.2-2,3.3c-0.6,0.9-1.2,1.8-1.6,2.7c-0.2,0.8,0.2,1.4,0.4,2
	C335.9,189.9,336.5,190.4,337.2,190.5 M322,178.1l-1-0.6c-0.3,0.1-0.4,0.3-0.3,1.1l0,0.3c0.2,0.2,0.6,0.4,1.1-0.3
	C321.8,178.5,321.9,178.3,322,178.1 M316.8,175.6c0.9,0.8,1.9,1.5,1.5,2.7c-0.5,0.2-1-0.1-1.5-0.2c-0.6-0.2-1.6-0.4-1.8,0.3
	c0.2,0.1,0.3,0.1,0.5,0.2c1.1,0.6,2.2,1.8,3.3,0.7c0.2-0.2,0.3-0.5,0.3-0.7c0.2-0.9-0.2-2-0.4-3c-0.8-0.7-1.7-1.4-2.6-0.8
	C316.3,175.1,316.6,175.4,316.8,175.6 M346.4,173.3c-1.1-0.7-2.2,0.4-2.8,1.9C344.6,175.4,345.7,175,346.4,173.3 M347.4,170.5
	l-0.3-0.3c-1.3,0-2.3,1-3.2,1.8c-0.1,0.4-0.7,0.8-0.2,1.1c1.1-0.2,2.2-0.3,3.2-0.9C347.1,171.7,347.6,171.2,347.4,170.5 M302,166.7
	c-0.4-0.7-1-1.4-1.4-2.1l-1.1-1c-1.2,0.9,0.1,2.1,0.4,3.1c-0.2,0.2-0.3,0.1-0.4,0c-0.2-0.2-0.3-0.5-0.7-0.5
	c-0.2,0.1-0.3,0.3-0.4,0.6c-0.1,0.3-0.1,0.6-0.1,0.9c0.4,1,1.6,1.4,2.3,2.7c-0.7-0.2-1.4-0.7-2.6,0.1l2.5,2.7
	c-0.4,0.5-0.9-0.3-2.3-0.2c0,0.7,0.1,1.1,0.3,1.7c0.8,0.8,2,1.4,3.2,0.6c-0.3-2.2-0.4-4.8,0.3-6.9
	C302.4,167.7,302.3,167.2,302,166.7 M302.2,162.3c-0.4-0.5-0.2-1.7-1.1-1.6c-0.5,0.4-0.6,0.9-0.8,1.5c0.6,1.1,0.9,2.3,2.3,3.8
	C302.9,165,302.3,164.2,302.2,162.3 M304.3,157.4l-0.3-0.3c-1.1,0.1-1.6,1.4-2,2.3c0.5,1.6,1.2,3.2,1.6,4.9c0.9-1.4,0.8-3.2,0.9-4.8
	C304.3,158.7,304.3,158.2,304.3,157.4 M343,166.7c0.7-1.1,1-2.4,1.6-3.4c-0.1-0.4,0.2-0.8-0.2-1.1c-1.2-0.2-1,1.3-2,1.8
	c0-1.4,1-2.3,0.8-3.6c-0.2-0.4-0.4-0.9-1.5-1.1c-0.3,2.3-0.3,4.6,0.6,7.4l0.2,0.6C342.8,167.1,342.9,166.9,343,166.7 M345.6,163.8
	c-0.7,0.9-1.5,1.8-2.1,2.9c-0.1,0.2-0.2,0.4-0.3,0.6c-0.2,0.4-0.4,0.8,0.3,1.1l1.2-1.7l0.4-0.6c0.4-0.7,1.3-1.1,1-2L345.6,163.8z
	 M346.8,166.7c-0.1-0.2-0.2-0.3-0.4-0.3c-0.2,0.1-0.4,0.2-0.6,0.4c-0.8,0.6-1.5,1.5-2,2.1c-0.3,0.7-1.1,1.2-0.1,2.5l3.3-3.3
	C346.9,167.6,347,167.1,346.8,166.7 M239.8,199.3l-0.8-6.6l8.7,2.1L239.8,199.3z M239.1,199.7l-4.2,2.4c-0.5,0.3-1.5,0.7-1.8,0.8
	c-1.8,0.2-1.1-2.2-2-2.1c-0.3,0-0.4,0.2-0.3,0.6c0.2,1.4,0.4,2.6,0.5,3.9c0.2,1.3,0.3,2.6,0.4,4c0,0.3,0.1,0.5,0.5,0.5
	c0.7-0.1-0.4-1.5,1.5-2.6l15.1-8.9c4.2-2.5,5.4-2.6,5.3-3c-0.1-0.4-0.5-0.2-2.1-0.7c-2.1-0.7-2.1-1.2-2.6-1.2c-0.4,0-1,0.9-1.2,0.9
	c-0.3,0-1.6-0.4-12.2-3.1c-2.4-0.6-4.3-1.5-5.2-2.2c-0.9-0.8-0.7-2.1-1.4-2.1c-0.3,0-0.4,0.2-0.3,0.5c0.1,1.2,0.3,2.2,0.5,3.3
	c0.3,2.2,0.3,3,0.4,3.7c0,0.4,0.1,0.5,0.4,0.5c0.8-0.1-0.3-2.7,3.1-3.1c1-0.1,2,0.2,4.7,0.8L239.1,199.7z M241.8,219.4
	c-3.4,1.8-4.6,5.7-1.8,11.1c2.4,4.5,6.2,5.6,10.4,3.4l9.2-4.9c2.6-1.4,4.4-0.9,5.3,0c0.6,0.6,0.7,1,1.1,0.8c0.3-0.1,0.2-0.3,0-0.8
	c-0.6-1-1-1.8-1.7-3c-0.6-1.2-1-2.1-1.6-3.1c-0.3-0.5-0.4-0.6-0.7-0.5c-0.4,0.2-0.1,0.5,0,1.4c0.2,1.3-0.4,3-3,4.4l-9.3,4.9
	c-3.6,1.9-6.7,1.3-8.5-2.2c-1.7-3.2-0.9-6.3,2.2-8l12.8-6.8c2-1.1,2.4,1.9,3.1,1.5c0.4-0.2,0.3-0.4,0.1-0.9c-0.5-1-1-1.8-1.9-3.5
	c-0.9-1.7-1.3-2.5-1.8-3.6c-0.3-0.5-0.4-0.6-0.8-0.4c-0.8,0.4,1.5,2.3-0.5,3.4L241.8,219.4z M256.4,252.4c-0.2,0.3-0.1,0.4,0,0.5
	c0.5,0.4,0.9-0.8,1.9,0.1c0.7,0.5,1.5,3,3.4,4.5c4.1,3.5,8.4,2.3,10.7-0.5c5.3-6.3-5.4-12.6-1.4-17.4c1.4-1.6,3.5-1.9,5.4-0.3
	c2.9,2.4,2.1,6.1,0.5,9.8c-0.2,0.3-0.4,0.7-0.2,0.9c0.2,0.1,0.4,0.1,0.6-0.1c0.3-0.3,1.7-2.2,4.4-6.2c0.2-0.3,0.3-0.4,0.1-0.6
	c-0.5-0.4-0.8,0.7-1.6,0.1c-1-0.8-1-2.6-3.2-4.5c-2.9-2.4-7.2-2.2-9.5,0.6c-5.4,6.4,5.8,12.2,1.4,17.4c-1.5,1.8-3.9,2.4-6.5,0.3
	c-3.3-2.8-1.9-7.2,0.3-10.8c0.4-0.6,0.5-0.9,0.3-1.1c-0.1-0.1-0.3-0.1-0.5,0.1L256.4,252.4z M301,253.9c3.2,1.1,4.9,4.9,5.2,7.9
	c0.1,0.9,0.1,1.3,0.3,1.4c0.2,0.1,0.3,0,0.4-0.2c0.1-0.4,0.2-1.2,0.3-1.9l0.8-5.6c0-0.2,0.1-0.6-0.1-0.7c-0.2-0.1-0.3,0-0.5,0.1
	c-0.2,0.1-0.6,0.1-1.2-0.1l-13.5-4.7c-0.7-0.2-0.9-0.4-1-0.6c-0.1-0.2-0.1-0.3-0.3-0.4c-0.3-0.1-0.5,0.3-0.6,0.5l-2.8,4.9
	c-0.3,0.6-0.8,1.3-0.9,1.7c0,0.1,0,0.3,0.2,0.3c0.2,0.1,0.5-0.3,1.1-0.9c2.1-2.2,5.8-4.1,9-3l-6.4,18.8c-0.8,2.2-3.5,0.1-3.8,0.9
	c-0.1,0.4,0.2,0.6,0.6,0.7c1.5,0.5,2.3,0.7,4.2,1.4c1.9,0.6,2.7,1,4.1,1.5c0.5,0.2,0.8,0.2,1-0.2c0.3-0.8-3.2-0.8-2.4-3L301,253.9z
	 M325.3,257.2l1.9-0.2c3.1-0.3,5.1,1,5.5,4.9c0.4,3.9-1.4,5.6-5,5.9l-1.5,0.1L325.3,257.2z M323.1,277.4c0.2,2.3-2.6,1.4-2.6,2.3
	c0,0.4,0.2,0.5,0.8,0.4c1.2-0.1,2-0.2,4-0.4c2-0.2,2.8-0.2,4-0.3c0.5-0.1,0.7-0.1,0.7-0.5c-0.1-0.8-2.7,0.5-2.9-1.8l-0.7-8.2l0.5,0
	c2.5-0.2,3.2,0.5,5.9,4.7l3.3,5.3c2.9-0.2,5.2-0.4,5.7-0.4c0.4,0,0.6-0.2,0.6-0.5c-0.1-0.8-2.3,0.5-4-2.3l-2.1-3.6
	c-1.9-3.3-3.5-3.7-6.6-3.8V268c4.7-0.7,7.8-3.1,7.5-6.6c-0.3-2.9-3-5.8-9.5-5.3c-1.3,0.1-2.6,0.3-4.4,0.4c-2,0.2-2.8,0.2-4,0.3
	c-0.5,0-0.7,0.1-0.7,0.5c0.1,0.8,2.7-0.5,2.9,1.8L323.1,277.4z M384.4,252.6c1.7,1.6-1,2.8-0.4,3.4c0.3,0.3,0.5,0.2,0.8-0.2
	c0.8-0.8,1.3-1.5,2.7-3c5-5.4,7-7.4,8.8-9.3l-4.7-6.3c-0.3-0.4-0.5-0.6-0.6-0.7c-0.1-0.1-0.3-0.2-0.5,0c-0.2,0.2-0.1,0.3,0.2,0.8
	c1.8,3,2.9,7.9-0.6,11.7c-1.1,1.2-2.1,1.5-3.5,0.2l-12.8-11.9c-1.7-1.6,1-2.8,0.4-3.4c-0.3-0.3-0.5-0.2-0.8,0.2
	c-0.8,0.8-1.3,1.5-2.7,3c-1.4,1.4-2,2-2.8,2.9c-0.3,0.4-0.4,0.6-0.1,0.8c0.6,0.6,1.7-2.2,3.4-0.6L384.4,252.6z M403.7,225.9
	c2.1,1-0.1,3,0.7,3.3c0.4,0.2,0.5,0,0.7-0.5c0.5-1,0.8-1.9,1.6-3.7c0.8-1.8,1.3-2.5,1.7-3.6c0.2-0.5,0.3-0.7-0.1-0.8
	c-0.8-0.4-1,2.6-3,1.6l-16.5-7.7c-2.1-1,0.1-3-0.7-3.3c-0.4-0.2-0.5,0-0.8,0.5c-0.5,1.1-0.8,1.9-1.6,3.7c-0.8,1.8-1.3,2.6-1.7,3.6
	c-0.2,0.5-0.3,0.7,0.1,0.9c0.8,0.4,0.9-2.6,3-1.6L403.7,225.9z M405.6,194.5l-0.8,6.6l-7.9-4.1L405.6,194.5z M406.5,194.3l4.6-1.3
	c0.5-0.2,1.6-0.4,1.9-0.3c1.8,0.2,0.6,2.4,1.4,2.5c0.3,0,0.4-0.1,0.5-0.5c0.2-1.3,0.3-2.6,0.4-3.9c0.2-1.3,0.4-2.6,0.5-3.9
	c0-0.3,0-0.6-0.3-0.6c-0.8-0.1,0,1.6-2.1,2.2l-16.8,5c-4.7,1.4-5.8,1.2-5.9,1.7c-0.1,0.4,0.4,0.3,1.8,1.2c1.9,1.2,1.7,1.7,2.3,1.8
	c0.4,0,1.1-0.7,1.4-0.6c0.3,0,1.4,0.8,11.1,5.9c2.2,1.2,3.8,2.5,4.5,3.4c0.7,1,0.2,2.3,0.8,2.3c0.3,0,0.4-0.1,0.5-0.4
	c0.1-1.2,0.2-2.2,0.3-3.3c0.3-2.2,0.4-3,0.5-3.7c0-0.4,0.1-0.5-0.3-0.6c-0.8-0.1-0.3,2.7-3.7,2.3c-1-0.1-1.9-0.7-4.4-1.9
	L406.5,194.3z M266.8,144.6c0.2,0.2,0.4,0.2,0.5,0c0.4-0.5-0.7-0.9,0.2-1.9c0.6-0.6,3.1-1.4,4.8-3.3c3.8-4.1,2.9-8.4,0.2-10.9
	c-6.1-5.6-13.1,5-17.7,0.8c-1.6-1.5-1.6-3.6,0.1-5.5c2.6-2.8,6.3-1.9,9.9-0.1c0.3,0.2,0.7,0.4,0.9,0.2c0.1-0.1,0.2-0.4-0.1-0.6
	c-0.3-0.3-2.1-1.8-5.9-4.7c-0.3-0.2-0.4-0.3-0.6-0.1c-0.4,0.5,0.7,0.9,0,1.6c-0.9,1-2.7,0.9-4.8,3.1c-2.6,2.8-2.7,7.3-0.1,9.7
	c6.1,5.7,12.7-5.4,17.7-0.7c1.7,1.6,2.1,4.1-0.2,6.6c-3.1,3.3-7.4,1.7-10.9-0.8c-0.6-0.4-0.9-0.6-1.1-0.3c-0.1,0.1-0.2,0.3,0.1,0.5
	L266.8,144.6z M284,101.9c-5.3,2.3-9.4,9.1-6.3,16c3.1,7,10.8,8.4,16.1,6.1c5.3-2.3,9.4-9.1,6.3-16C297,101,289.3,99.5,284,101.9
	 M296,109.8c3.1,7,1.6,11.6-2.5,13.5c-4.1,1.8-8.5-0.1-11.7-7.2c-3.1-7-1.6-11.6,2.5-13.4C288.4,100.8,292.9,102.7,296,109.8
	 M312.5,111.3c0.1,3.8,3.1,6.7,9.4,6.6c5.3-0.1,8-2.9,8-7.7l-0.2-10.5c-0.1-2.9,1.2-4.3,2.5-4.8c0.9-0.3,1.3-0.1,1.3-0.6
	c0-0.3-0.2-0.4-0.8-0.4c-1.2,0-2.1,0.1-3.6,0.1c-1.4,0-2.4,0-3.6,0c-0.5,0-0.7,0.1-0.7,0.4c0,0.5,0.4,0.3,1.3,0.6
	c1.3,0.4,2.6,1.8,2.6,4.7l0.2,10.5c0.1,4.1-2,6.5-6,6.6c-3.7,0.1-6.2-2-6.3-5.6l-0.2-14.4c0-2.3,2.8-1.2,2.8-2.1
	c0-0.4-0.2-0.5-0.8-0.5c-1.2,0-2.1,0.1-4.1,0.1c-2,0-2.9,0-4.1,0c-0.5,0-0.8,0.1-0.7,0.5c0,0.8,2.8-0.3,2.9,2L312.5,111.3z
	 M358,102.2c3.2,1.3,4.8,5.2,5,8.3c0.1,0.9,0,1.3,0.2,1.4c0.2,0.1,0.3,0,0.4-0.1c0.2-0.4,0.3-1.2,0.4-1.9l1.1-5.6
	c0.1-0.2,0.2-0.6-0.1-0.7c-0.2-0.1-0.3,0-0.5,0.1c-0.2,0-0.6,0.1-1.3-0.2l-13.7-5.5c-0.7-0.3-0.9-0.5-1-0.7
	c-0.1-0.2-0.1-0.3-0.3-0.4c-0.3-0.1-0.5,0.3-0.6,0.5l-3.1,4.8c-0.4,0.6-0.9,1.2-1,1.6c-0.1,0.1,0,0.3,0.2,0.4
	c0.2,0.1,0.5-0.3,1.2-0.8c2.3-2.1,6.1-3.8,9.3-2.5l-7.4,18.4c-0.8,2.1-3.6-0.2-3.9,0.6c-0.2,0.4,0.1,0.6,0.6,0.8
	c1.5,0.6,2.3,0.9,4.2,1.6c1.9,0.8,2.7,1.2,4.2,1.8c0.5,0.2,0.8,0.3,1-0.1c0.3-0.8-3.2-1-2.4-3.2L358,102.2z M382.8,132.2l-6.5,6.7
	c-1.6,1.6-2.9-1.1-3.5-0.5c-0.3,0.3-0.2,0.5,0.2,0.9c0.8,0.8,1.5,1.4,3,2.8c1.5,1.4,2.1,2.1,2.9,2.9c0.4,0.4,0.6,0.5,0.9,0.2
	c0.6-0.6-2.2-1.8-0.6-3.4l12.6-13.1c1.6-1.6,2.9,1.1,3.5,0.5c0.3-0.3,0.2-0.5-0.2-0.9c-0.9-0.8-1.5-1.4-3-2.8
	c-1.5-1.4-2.1-2.1-2.9-2.9c-0.4-0.4-0.6-0.5-0.9-0.2c-0.6,0.6,2.2,1.8,0.6,3.4l-5.6,5.8l-7.1-6.8l5.6-5.8c1.6-1.6,2.9,1.1,3.5,0.5
	c0.3-0.3,0.2-0.5-0.2-0.9c-0.8-0.8-1.5-1.4-3-2.8c-1.5-1.4-2.1-2.1-2.9-2.9c-0.4-0.4-0.6-0.5-0.9-0.2c-0.6,0.6,2.2,1.8,0.6,3.4
	l-12.6,13.1c-1.6,1.6-2.9-1.1-3.5-0.5c-0.3,0.3-0.2,0.5,0.2,0.9c0.8,0.8,1.5,1.4,3,2.8c1.5,1.4,2.1,2.1,2.9,2.9
	c0.4,0.4,0.6,0.5,0.9,0.2c0.6-0.6-2.2-1.8-0.6-3.4l6.5-6.7L382.8,132.2z M361.1,261.1l-6,2.9l-0.9-8.9L361.1,261.1z M361.8,261.7
	l3.6,3.2c0.4,0.4,1.2,1.1,1.3,1.4c0.8,1.7-1.7,1.8-1.3,2.5c0.1,0.3,0.3,0.3,0.6,0.1c1.2-0.6,2.3-1.2,3.5-1.8
	c1.2-0.6,2.4-1.1,3.6-1.7c0.3-0.1,0.5-0.3,0.3-0.6c-0.3-0.7-1.3,0.9-3-0.5L357.2,253c-3.7-3.2-4.2-4.2-4.6-4c-0.4,0.2,0,0.6,0,2.2
	c0,2.2-0.5,2.4-0.3,2.8c0.2,0.4,1.2,0.6,1.3,0.8c0.1,0.2,0.2,1.6,1.1,12.6c0.2,2.5,0,4.6-0.4,5.6c-0.5,1.1-1.8,1.4-1.5,1.9
	c0.1,0.2,0.3,0.3,0.6,0.2c1.1-0.5,2-1.1,3-1.5c2-1,2.8-1.3,3.4-1.6c0.3-0.2,0.5-0.2,0.3-0.6c-0.4-0.7-2.5,1.2-4-1.9
	c-0.4-0.9-0.5-2-0.8-4.7L361.8,261.7z"/>
<rect x="100.3" y="440.7" class="st3" width="445.9" height="9.9"/>
<path class="st0" d="M134.7,390.7H130V386h4.7v-3.4c0-4.9,2.8-8.4,7.8-8.4c1.6,0,3.4,0.3,4.7,0.5l-0.5,5.3c-0.6-0.3-1.4-0.9-2.8-0.9
	c-2.1,0-2.8,1.9-2.8,3.8v3.1h5.6v4.7h-5.6v19.9h-6.4V390.7z M201,331.2c-2.9-0.9-5.9-1.4-9.8-1.4c-11.3,0-18.3,6.4-18.3,17.8
	c0,11.3,7.5,16.7,18.3,16.7c3.6,0,7.3-0.8,10.8-1.7v-18h-13.4v5.3h7.1v8.7c-1.1,0.3-2.6,0.5-4.4,0.5c-7.1,0-11.3-5.1-11.3-11.9
	c0-6.8,4.3-12.1,12.1-12.1c2.7,0,6,0.6,8.6,1.8L201,331.2z M216.1,350.8c0,4.1,1.3,8.5,6.2,8.5c4.9,0,6.2-4.4,6.2-8.5
	c0-3.8-2-7.3-6.2-7.3C218.1,343.5,216.1,347.1,216.1,350.8 M209.5,351.5c0-8.1,5.6-13,12.8-13c7.3,0,12.9,4.9,12.9,13
	c0,7.1-4.7,12.7-12.9,12.7C214.2,364.2,209.5,358.6,209.5,351.5 M249.1,363.7h7.2l9.1-24.6H259l-5.9,17.9H253l-6.1-17.9H240
	L249.1,363.7z M291.5,362.3c-2.3,1.3-5,2-8.4,2c-8.1,0-12.8-4.7-12.8-12.7c0-7.1,3.8-13,11.4-13c9.1,0,11.7,6.2,11.7,14.8h-17
	c0.3,4,3.1,6.2,7,6.2c3.1,0,5.8-1.1,8.2-2.5V362.3z M287.2,349c-0.2-3.1-1.6-5.8-5.2-5.8s-5.4,2.5-5.7,5.8H287.2z M301,363.7h6.4v-9
	c0-3.5,0-10,5.2-10c1.1,0,2.3,0.2,2.9,0.5v-6.4c-0.7-0.2-1.3-0.2-1.9-0.2c-3.8,0-6.5,3.9-6.7,6.2h-0.1v-5.6H301V363.7z M322.8,363.7
	h6.4v-12c0-3.1,1-8.2,5.6-8.2c4.1,0,4.2,4,4.2,7.1v13.1h6.4v-15.5c0-5.5-2.5-9.6-8.3-9.6c-3.3,0-6,1.1-8.1,3.9h-0.1v-3.3h-6.1V363.7
	z M354.4,363.7h6.4v-11.9c0-3.2,0.5-8.3,4.8-8.3c3.7,0,3.7,3.2,3.7,5.5v14.7h6.4v-11.9c0-3.2,0.5-8.3,4.8-8.3c3.7,0,3.7,3.2,3.7,5.5
	v14.7h6.4v-15.5c0-5.5-1.7-9.6-7.8-9.6c-3,0-6.2,1.4-7.7,4.3c-1.4-3.1-3.8-4.3-7.3-4.3c-2.4,0-5.3,1-7.3,4h-0.1v-3.4h-6V363.7z
	 M419.2,362.3c-2.3,1.3-5,2-8.5,2c-8.1,0-12.8-4.7-12.8-12.7c0-7.1,3.8-13,11.4-13c9.1,0,11.7,6.2,11.7,14.8h-17c0.3,4,3,6.2,7,6.2
	c3.1,0,5.8-1.1,8.2-2.5V362.3z M414.9,349c-0.2-3.1-1.6-5.8-5.2-5.8c-3.6,0-5.4,2.5-5.7,5.8H414.9z M428.6,363.7h6.4v-12
	c0-3.1,1-8.2,5.6-8.2c4.1,0,4.2,4,4.2,7.1v13.1h6.4v-15.5c0-5.5-2.5-9.6-8.4-9.6c-3.3,0-6.1,1.1-8.1,3.9h-0.1v-3.3h-6.1V363.7z
	 M462.4,356.3c0,4.9,2.8,8,7.8,8c1.9,0,3.4-0.2,4.7-0.6l-0.2-5.1c-0.7,0.4-1.8,0.7-2.9,0.7c-2.4,0-3-1.9-3-4.1v-11.5h5.7v-4.7h-5.7
	v-7l-6.4,2.1v4.9h-4.7v4.7h4.7V356.3z M105.7,397.7c0,4.1,1.3,8.5,6.2,8.5c4.9,0,6.2-4.4,6.2-8.5c0-3.8-2-7.3-6.2-7.3
	C107.7,390.4,105.7,394.1,105.7,397.7 M99.1,398.5c0-8.1,5.6-13,12.8-13c7.3,0,12.9,4.9,12.9,13c0,7.1-4.7,12.7-12.9,12.7
	C103.8,411.2,99.1,405.5,99.1,398.5 M188.3,377.9c-2.4-0.8-5.1-1.2-8-1.2c-5.9,0-11.6,2.7-11.6,10.2c0,11,14.6,8.4,14.6,14.8
	c0,3-3.4,4.3-5.9,4.3c-2.6,0-5.3-0.8-7.5-2.1l-0.6,6c3.3,0.8,4.9,1.3,8.5,1.3c6.7,0,12.5-2.8,12.5-10.1c0-11.2-14.6-8.7-14.6-14.5
	c0-3.6,3-4.6,5.2-4.6c2.3,0,4.7,0.5,6.8,1.4L188.3,377.9z M203.4,397.7c0,4.1,1.3,8.5,6.2,8.5c4.9,0,6.2-4.4,6.2-8.5
	c0-3.8-2-7.3-6.2-7.3C205.4,390.4,203.4,394.1,203.4,397.7 M196.7,398.5c0-8.1,5.6-13,12.8-13c7.3,0,12.9,4.9,12.9,13
	c0,7.1-4.7,12.7-12.9,12.7C201.5,411.2,196.7,405.5,196.7,398.5 M252.6,386h-6.4v12c0,3.1-1,8.2-5.6,8.2c-4.1,0-4.2-4-4.2-7.1V386
	H230v15.5c0,5.5,2.5,9.6,8.4,9.6c3.3,0,6.1-1.5,8.1-3.9h0.1v3.3h6.1V386z M263.8,403.2c0,4.9,2.8,8,7.8,8c1.9,0,3.4-0.2,4.7-0.6
	l-0.2-5.1c-0.7,0.4-1.8,0.7-2.9,0.7c-2.4,0-3-1.9-3-4.1v-11.5h5.7V386h-5.7v-7l-6.4,2.1v4.9h-4.7v4.7h4.7V403.2z M282.8,410.6h6.4
	v-12c0-3.1,1-8.2,5.6-8.2c4.1,0,4.2,4.1,4.2,7.1v13.1h6.4v-15.5c0-5.5-2.5-9.6-8.3-9.6c-3.3,0-6.1,1.5-7.7,3.9h-0.1v-14.6h-6.4
	V410.6z M340.4,377.3h7.5l13.1,33.3h-7.4l-2.9-7.6h-13.5l-2.9,7.6h-6.9L340.4,377.3z M344.1,384H344l-4.8,13.7h9.7L344.1,384z
	 M389.9,386h-6.4v12c0,3.1-1,8.2-5.6,8.2c-4.1,0-4.2-4-4.2-7.1V386h-6.4v15.5c0,5.5,2.5,9.6,8.3,9.6c3.3,0,6.1-1.5,8.1-3.9h0.1v3.3
	h6.1V386z M414,386.4c-2-0.4-4-0.9-7-0.9c-5,0-9.6,2.3-9.6,7.6c0,8.9,11.1,5.6,11.1,10.4c0,2.4-2.6,3-4.2,3c-2.2,0-4.3-0.6-6.3-1.6
	l-0.4,5.3c2.3,0.6,4.8,1,7.3,1c5.2,0,10.3-2.3,10.3-8c0-8.9-11.1-6.4-11.1-10.3c0-2.1,2-2.7,3.8-2.7c2.3,0,3.8,0.4,5.7,1.1
	L414,386.4z M424.8,403.2c0,4.9,2.8,8,7.8,8c1.9,0,3.4-0.2,4.7-0.6l-0.2-5.1c-0.7,0.4-1.8,0.7-2.9,0.7c-2.4,0-3-1.9-3-4.1v-11.5h5.7
	V386h-5.7v-7l-6.4,2.1v4.9h-4.7v4.7h4.7V403.2z M444,410.6h6.4v-9c0-3.5,0-10,5.2-10c1.1,0,2.3,0.2,2.9,0.5v-6.4
	c-0.7-0.2-1.3-0.2-1.9-0.2c-3.8,0-6.5,3.9-6.7,6.2h-0.1V386H444V410.6z M469.5,403.5c0,2.1,1.8,3,4.1,3c2,0,3.5-0.9,4.5-2.2
	c1-1.4,1.3-3.1,1.3-5.1h-2.8C473.7,399.3,469.5,399.7,469.5,403.5 M466,387.3c2.5-1.1,5.8-1.9,8.5-1.9c7.5,0,10.6,3.1,10.6,10.3v3.1
	c0,2.5,0,4.4,0.1,6.2c0,1.9,0.1,3.6,0.3,5.5h-5.6c-0.2-1.3-0.2-2.9-0.3-3.7h-0.1c-1.5,2.7-4.7,4.2-7.6,4.2c-4.3,0-8.6-2.6-8.6-7.3
	c0-3.7,1.8-5.8,4.2-7c2.4-1.2,5.6-1.4,8.3-1.4h3.5c0-4-1.8-5.3-5.5-5.3c-2.7,0-5.4,1.1-7.6,2.7L466,387.3z M494.2,410.6h6.4v-35.8
	h-6.4V410.6z M510,386h6.4v24.6H510V386z M510,375.4h6.4v6.1H510V375.4z M530.2,403.5c0,2.1,1.8,3,4.1,3c1.9,0,3.5-0.9,4.5-2.2
	c1.1-1.4,1.3-3.1,1.3-5.1h-2.8C534.4,399.3,530.2,399.7,530.2,403.5 M526.8,387.3c2.5-1.1,5.8-1.9,8.5-1.9c7.5,0,10.6,3.1,10.6,10.3
	v3.1c0,2.5,0.1,4.4,0.1,6.2c0,1.9,0.1,3.6,0.3,5.5h-5.6c-0.2-1.3-0.2-2.9-0.3-3.7h-0.1c-1.5,2.7-4.7,4.2-7.6,4.2
	c-4.3,0-8.6-2.6-8.6-7.3c0-3.7,1.8-5.8,4.2-7c2.4-1.2,5.6-1.4,8.3-1.4h3.5c0-4-1.8-5.3-5.5-5.3c-2.7,0-5.4,1.1-7.6,2.7L526.8,387.3z
	 M100.3,481.5h4.8c7.4,0,13.5,3.4,13.5,13.5c0,10.2-6.1,14-15.6,14h-2.7V481.5z M97,511.9h5.8c11,0,19-4.6,19-16.6
	c0-9.7-4.7-16.5-16.6-16.5H97V511.9z M130.1,498c0-4,2.7-8.4,7.1-8.4c4.5,0,6.2,4.2,6.2,8.4H130.1z M144.9,508
	c-1.4,0.9-4.6,1.8-6.8,1.8c-5.2,0-8-4.1-8-9.3h16.6v-1.5c0-6.5-2.8-12-9.7-12c-6.1,0-10.2,5.3-10.2,12.7c0,7.3,3,12.7,11,12.7
	c2.2,0,4.9-0.5,7-1.3V508z M162.3,489.6c5.7,0,7.2,5.4,7.2,10.1c0,4.7-1.5,10.1-7.2,10.1c-5.3,0-7.2-5.7-7.2-10.1
	S157,489.6,162.3,489.6 M152.1,521.8h3v-14.1h0.1c1.5,3.1,3.8,4.7,7.6,4.7c6.7,0,10-5.5,10-12.7c0-7.4-2.9-12.7-10-12.7
	c-5.1,0-7,3.7-7.8,5H155l0.2-4.4h-3V521.8z M192.5,501.1c0,2.6-0.1,8.8-7.2,8.8c-2.8,0-5-1.2-5-4.4c0-5.3,6.2-5.8,11.4-5.8h0.8
	V501.1z M192.8,511.8h3c-0.2-1.7-0.2-3.1-0.2-5.1v-10.7c0-6.3-2.5-9-8.5-9c-2.1,0-5.3,0.8-7.1,1.7v2.9c2.2-1.4,4.6-2,7.1-2
	c4,0,5.5,2.1,5.5,6.2v1.2h-0.6c-6.3,0-14.9,0.4-14.9,8.5c0,2.2,1.1,6.9,8,6.9c3,0,6.4-1.6,7.7-4.5h0.1V511.8z M202.7,511.8h3v-12
	c0-4.4,1.3-9.7,6-9.7c0.8,0,1.6,0.1,2.2,0.3v-3.1c-0.5-0.1-1.4-0.3-2.1-0.3c-3.1,0-5.1,2.5-6.2,5.2h-0.1v-4.7h-3
	c0.2,1.8,0.2,2.8,0.2,5.4V511.8z M229,487.6h-5.5v-6.9l-3,1v5.8h-4.8v2.6h4.8v14.2c0,4.4,0.2,8.1,5.5,8.1c1.5,0,3-0.4,3.7-0.7
	l-0.2-2.5c-0.9,0.3-1.6,0.6-2.8,0.6c-2.4,0-3.2-1.8-3.2-4v-15.7h5.5V487.6z M266.6,511.8v-16.7c0-4.7-2.8-8.1-7.7-8.1
	c-3.8,0-6.7,2.3-7.7,5.1h-0.1c-0.8-4.2-4.3-5.1-6.4-5.1c-5.2,0-6.6,3-7.6,4.7l-0.1-0.1v-4.1h-2.9c0.2,1.9,0.2,3.8,0.2,5.7v18.5h3
	v-13.4c0-6,3.2-8.8,6.5-8.8c3.8,0,5.1,2.7,5.1,6.1v16.1h3v-13.4c0-6,3.2-8.8,6.5-8.8c3.8,0,5.1,2.7,5.1,6.1v16.1H266.6z M275.4,498
	c0-4,2.7-8.4,7.1-8.4c4.5,0,6.2,4.2,6.2,8.4H275.4z M290.2,508c-1.4,0.9-4.6,1.8-6.8,1.8c-5.2,0-8-4.1-8-9.3H292v-1.5
	c0-6.5-2.8-12-9.6-12c-6.1,0-10.2,5.3-10.2,12.7c0,7.3,3,12.7,11,12.7c2.2,0,4.9-0.5,7-1.3V508z M297.7,511.8h3v-13.4
	c0-4,1.7-8.8,7.2-8.8c4.1,0,5.8,2.9,5.8,7.5v14.7h3v-15.5c0-5.3-2.3-9.3-8.3-9.3c-5,0-6.9,2.7-7.9,4.9h-0.1v-4.3h-2.9
	c0.2,1.9,0.2,3.8,0.2,5.7V511.8z M334.6,487.6h-5.5v-6.9l-3,1v5.8h-4.7v2.6h4.7v14.2c0,4.4,0.2,8.1,5.5,8.1c1.5,0,3-0.4,3.7-0.7
	l-0.2-2.5c-0.9,0.3-1.6,0.6-2.8,0.6c-2.4,0-3.2-1.8-3.2-4v-15.7h5.5V487.6z M362.7,509.8c-5.2,0-8-4.5-8-10.1c0-5.6,2.8-10.1,8-10.1
	c5.2,0,8,4.5,8,10.1C370.8,505.3,367.9,509.8,362.7,509.8 M362.7,487c-7.8,0-11.3,6.1-11.3,12.7c0,6.6,3.5,12.7,11.3,12.7
	c7.8,0,11.3-6.1,11.3-12.7C374,493.1,370.6,487,362.7,487 M381.7,511.8h3v-21.7h5.5v-2.6h-5.5v-2.1c0-2.9-0.4-7.3,3.7-7.3
	c0.9,0,1.8,0.2,2.4,0.5l0.2-2.6c-0.6-0.3-1.9-0.5-2.8-0.5c-6.2,0-6.4,5.1-6.4,10.2v1.8h-4.9v2.6h4.9V511.8z M412.4,481.5h5.3
	c4.2,0,6.6,2.4,6.6,6.6c0,6-4.7,6.6-9.6,6.6h-2.3V481.5z M409.1,511.8h3.3v-14.4h4.6c6,0,10.6-3.2,10.6-9.4c0-6.3-4-9.4-10.3-9.4
	h-8.2V511.8z M432.5,511.8h3v-12c0-4.4,1.3-9.7,6-9.7c0.8,0,1.6,0.1,2.2,0.3v-3.1c-0.5-0.1-1.4-0.3-2.1-0.3c-3.1,0-5.1,2.5-6.2,5.2
	h-0.1v-4.7h-3c0.2,1.8,0.2,2.8,0.2,5.4V511.8z M448.4,487.6h3v24.2h-3V487.6z M448.4,477.1h3v4h-3V477.1z M491.2,511.8v-16.7
	c0-4.7-2.8-8.1-7.7-8.1c-3.8,0-6.7,2.3-7.8,5.1h-0.1c-0.8-4.2-4.3-5.1-6.4-5.1c-5.2,0-6.6,3-7.6,4.7l-0.1-0.1v-4.1h-2.9
	c0.2,1.9,0.2,3.8,0.2,5.7v18.5h3v-13.4c0-6,3.2-8.8,6.5-8.8c3.8,0,5.1,2.7,5.1,6.1v16.1h3v-13.4c0-6,3.2-8.8,6.5-8.8
	c3.8,0,5.1,2.7,5.1,6.1v16.1H491.2z M512.2,501.1c0,2.6-0.1,8.8-7.2,8.8c-2.8,0-5-1.2-5-4.4c0-5.3,6.2-5.8,11.4-5.8h0.8V501.1z
	 M512.5,511.8h3c-0.2-1.7-0.2-3.1-0.2-5.1v-10.7c0-6.3-2.5-9-8.5-9c-2.1,0-5.3,0.8-7.1,1.7v2.9c2.2-1.4,4.6-2,7.1-2
	c4,0,5.5,2.1,5.5,6.2v1.2h-0.6c-6.3,0-14.9,0.4-14.9,8.5c0,2.2,1.1,6.9,8,6.9c3,0,6.4-1.6,7.7-4.5h0.1V511.8z M522.3,511.8h3v-12
	c0-4.4,1.3-9.7,6-9.7c0.8,0,1.6,0.1,2.2,0.3v-3.1c-0.5-0.1-1.4-0.3-2.1-0.3c-3.1,0-5.1,2.5-6.2,5.2h-0.1v-4.7h-3
	c0.2,1.8,0.2,2.8,0.2,5.4V511.8z M538.1,487.6h-3.3l8.6,24.5l-0.6,2.1c-1,3.1-1.8,5.3-4.4,5.3c-1.1,0-1.7-0.2-2.2-0.4l-0.3,2.6
	c1,0.2,2.1,0.4,3.2,0.4c3.4,0,5.1-3.3,6.2-6.7l9.7-27.9H552l-7,20.2h0L538.1,487.6z M100.7,565h3.3v-33.2h-3.3V565z M111.3,565h3
	v-13.4c0-4,1.7-8.8,7.2-8.8c4.1,0,5.8,2.9,5.8,7.5V565h3v-15.5c0-5.3-2.3-9.3-8.3-9.3c-5,0-6.9,2.7-7.9,4.9H114v-4.3h-2.9
	c0.2,1.9,0.2,3.8,0.2,5.7V565z M146.8,563c-5.7,0-7.2-5.4-7.2-10.1c0-4.7,1.5-10.1,7.2-10.1c5.3,0,7.2,5.7,7.2,10.1
	C154,557.3,152.1,563,146.8,563 M157,529.3h-3v15.5h-0.1c-0.4-1.2-2.8-4.7-7.6-4.7c-7.1,0-10,5.3-10,12.7c0,7.2,3.3,12.7,10,12.7
	c3.5,0,6-1.3,7.6-4.4h0.1v3.8h3V529.3z M183.1,540.7h-3v13.4c0,4-1.7,8.8-7.2,8.8c-4.1,0-5.8-3-5.8-7.5v-14.7h-3v15.5
	c0,5.3,2.3,9.3,8.3,9.3c5,0,6.9-2.7,7.9-4.9h0.1v4.3h2.9c-0.2-1.9-0.2-3.8-0.2-5.7V540.7z M188.5,564.4c2.1,0.8,4.5,1.1,6.8,1.1
	c3.7,0,8.5-1.8,8.5-6.9c0-7.9-11.9-7.4-11.9-11.9c0-3.1,2.1-4,5.2-4c1.7,0,3.8,0.4,5.4,1.1l0.3-2.6c-2.1-0.8-4.7-1.1-6-1.1
	c-4,0-7.9,1.8-7.9,6.6c0,7,11.6,6.1,11.6,11.9c0,2.8-2.5,4.3-5.4,4.3c-2.3,0-4.5-0.6-6.3-1.5L188.5,564.4z M219.6,540.7h-5.5v-6.9
	l-3,1v5.8h-4.8v2.6h4.8v14.2c0,4.4,0.2,8.1,5.5,8.1c1.5,0,3-0.4,3.7-0.7l-0.2-2.5c-0.9,0.3-1.6,0.6-2.8,0.6c-2.4,0-3.2-1.8-3.2-4
	v-15.7h5.5V540.7z M225,565h3v-12c0-4.4,1.3-9.7,6-9.7c0.8,0,1.6,0.1,2.2,0.3v-3.1c-0.5-0.1-1.4-0.3-2.1-0.3c-3.1,0-5.1,2.5-6.2,5.2
	h-0.1v-4.7h-3c0.2,1.8,0.2,2.8,0.2,5.4V565z M240.8,540.7h3V565h-3V540.7z M240.8,530.3h3v4h-3V530.3z M252.9,551.2
	c0-4,2.7-8.4,7.1-8.4c4.5,0,6.2,4.2,6.2,8.4H252.9z M267.7,561.2c-1.4,0.9-4.6,1.8-6.8,1.8c-5.2,0-8-4.1-8-9.3h16.6v-1.5
	c0-6.5-2.8-12-9.6-12c-6.1,0-10.2,5.3-10.2,12.7c0,7.3,3,12.7,11,12.7c2.2,0,4.9-0.5,7-1.3V561.2z M273,564.4
	c2.1,0.8,4.5,1.1,6.8,1.1c3.7,0,8.5-1.8,8.5-6.9c0-7.9-11.9-7.4-11.9-11.9c0-3.1,2.1-4,5.2-4c1.7,0,3.8,0.4,5.4,1.1l0.3-2.6
	c-2.1-0.8-4.7-1.1-6-1.1c-4,0-7.9,1.8-7.9,6.6c0,7,11.6,6.1,11.6,11.9c0,2.8-2.5,4.3-5.4,4.3c-2.3,0-4.5-0.6-6.3-1.5L273,564.4z
	 M320.6,554.2c0,2.6-0.1,8.8-7.2,8.8c-2.8,0-5-1.2-5-4.4c0-5.3,6.2-5.8,11.4-5.8h0.9V554.2z M320.8,565h2.9
	c-0.2-1.7-0.2-3.1-0.2-5.1v-10.7c0-6.3-2.5-9-8.5-9c-2.1,0-5.3,0.8-7.1,1.7v2.9c2.2-1.4,4.6-2,7.1-2c4.1,0,5.5,2.1,5.5,6.2v1.2H320
	c-6.3,0-14.9,0.4-14.9,8.5c0,2.2,1.1,6.9,8,6.9c3,0,6.4-1.6,7.7-4.5h0.1V565z M330.7,565h3v-13.4c0-4,1.7-8.8,7.2-8.8
	c4.1,0,5.8,2.9,5.8,7.5V565h3v-15.5c0-5.3-2.3-9.3-8.3-9.3c-5,0-6.9,2.7-7.9,4.9h-0.1v-4.3h-2.9c0.2,1.9,0.2,3.8,0.2,5.7V565z
	 M366.2,563c-5.7,0-7.2-5.4-7.2-10.1c0-4.7,1.5-10.1,7.2-10.1c5.3,0,7.2,5.7,7.2,10.1C373.4,557.3,371.5,563,366.2,563 M376.4,529.3
	h-3v15.5h-0.1c-0.4-1.2-2.8-4.7-7.6-4.7c-7.1,0-10,5.3-10,12.7c0,7.2,3.3,12.7,10,12.7c3.5,0,5.9-1.3,7.6-4.4h0.1v3.8h3V529.3z
	 M400.5,534.7h3.4c4.5,0,8.4,0.3,8.4,5.8c0,4.6-4.4,6.1-8.3,6.1h-3.5V534.7z M397.2,565h3.3v-15.6h2.7c3.1,0,4.6,0.1,6.5,4.4
	l4.8,11.2h3.6l-5.7-12.8c-1.1-2.2-1.6-3.7-4.3-4v-0.1c4.1-0.5,7.4-3.4,7.4-7.7c0-6.1-3.8-8.6-9.8-8.6h-8.6V565z M424.7,551.2
	c0-4,2.7-8.4,7.1-8.4c4.5,0,6.2,4.2,6.2,8.4H424.7z M439.5,561.2c-1.4,0.9-4.6,1.8-6.8,1.8c-5.2,0-8-4.1-8-9.3h16.6v-1.5
	c0-6.5-2.8-12-9.7-12c-6.1,0-10.2,5.3-10.2,12.7c0,7.3,3,12.7,11,12.7c2.2,0,4.9-0.5,7-1.3V561.2z M455.9,562.4c-5.1,0-7-4.8-7-9.6
	c0-4.7,1.5-10.1,7.2-10.1c5.5,0,7.2,4.3,7.2,10.1C463.3,557.3,461.3,562.4,455.9,562.4 M466.2,540.7h-3v2.8h-0.1
	c-2.2-2.9-4.3-3.3-7.6-3.3c-7.1,0-10,5.3-10,12.7c0,5.4,2.5,12.1,10.2,12.1c3.1,0,5.8-1.2,7.4-4.7h0.1c0,6.8-0.7,12.4-8.4,12.4
	c-2.6,0-5.3-0.8-7.1-1.7l-0.3,3c1.2,0.4,4.1,1.3,7.3,1.3c8.3,0,11.4-5.5,11.4-12.3V540.7z M473.5,540.7h3V565h-3V540.7z
	 M473.5,530.3h3v4h-3V530.3z M493.5,563c-5.2,0-8-4.5-8-10.1c0-5.6,2.8-10.1,8-10.1c5.2,0,8,4.5,8,10.1
	C501.5,558.5,498.7,563,493.5,563 M493.5,540.2c-7.8,0-11.3,6.1-11.3,12.7c0,6.6,3.5,12.7,11.3,12.7c7.8,0,11.3-6.1,11.3-12.7
	C504.8,546.3,501.4,540.2,493.5,540.2 M510.5,565h3v-13.4c0-4,1.7-8.8,7.2-8.8c4.1,0,5.8,2.9,5.8,7.5V565h3v-15.5
	c0-5.3-2.3-9.3-8.3-9.3c-5,0-6.9,2.7-7.8,4.9h-0.1v-4.3h-2.9c0.2,1.9,0.2,3.8,0.2,5.7V565z M534.8,564.4c2.1,0.8,4.5,1.1,6.8,1.1
	c3.7,0,8.5-1.8,8.5-6.9c0-7.9-11.9-7.4-11.9-11.9c0-3.1,2.1-4,5.2-4c1.7,0,3.8,0.4,5.4,1.1l0.3-2.6c-2.1-0.8-4.7-1.1-6-1.1
	c-4,0-7.9,1.8-7.9,6.6c0,7,11.6,6.1,11.6,11.9c0,2.8-2.5,4.3-5.4,4.3c-2.3,0-4.5-0.6-6.3-1.5L534.8,564.4z"/>
</svg>
